/* XPM */
static char *result[] = {
/* columns rows colors chars-per-pixel */
"128 128 68 1 ",
"  c #010101",
". c #0B0607",
"X c #0D0708",
"o c #0C0B0B",
"O c #120B0B",
"+ c #190E0F",
"@ c #0E0D11",
"# c #100F13",
"$ c #1B0F10",
"% c #101010",
"& c #1D1011",
"* c #18171D",
"= c #231415",
"- c #291917",
"; c #271618",
": c #291719",
"> c #2D191B",
", c #331D1E",
"< c #36201F",
"1 c #1C1A21",
"2 c #201E26",
"3 c #361E21",
"4 c #381F22",
"5 c #372120",
"6 c #3C2223",
"7 c #412526",
"8 c #442629",
"9 c #48272C",
"0 c #47282A",
"q c #4C2B2D",
"w c #502E2F",
"e c #4F302D",
"r c #51312F",
"t c #4E2A31",
"y c #542E34",
"u c #582F37",
"i c #553132",
"p c #5B3436",
"a c #5C3239",
"s c #613A37",
"d c #62363B",
"f c #66393D",
"g c #693B3E",
"h c #6D403F",
"j c #6D3D41",
"k c #703F43",
"l c #6F4140",
"z c #744244",
"x c #794447",
"c c #774844",
"v c #7A4A46",
"b c #7B4649",
"n c #7F494A",
"m c #834B4D",
"M c #884E4F",
"N c #87514E",
"B c #89524F",
"V c #8A4F50",
"C c #8D5251",
"Z c #925554",
"A c #965956",
"S c #985A57",
"D c #975A58",
"F c #9B5D59",
"G c #9F605B",
"H c #A2625D",
"J c #A76660",
"K c #A86760",
/* pixels */
"o  .  .  .  .  .  .  . %%%%.  .  .  . .  . . .  .  .  .  .  .  .  .  .  .  .  .  .  .  .  .  .  .  ..%%%@.  .  .  .  .  .  .  .o",
".                      %%%o                                                                          %%%o                      o",
"  ;89yiiyywyyiyyy9983  %%%%  vnvvchnvzhppppsghvlhlvcczlhgghgggghcxcccchzzzsgsppsfgzvvNchhcclhzfsap6 .%%%o  68t9ytiyyyyyiiyy98X o",
". 4afjjzkjjjjggjjjau8  %%%%  KKKHAZHKACmbxbmCFHACAHGFDAZBCZCBBBZFFGFGGAAFFNmnnnmVBFHHKFZFFDDSSZmnbq .%%%o Xuuffljjjgjkjkzjgap+ o",
". 6jzxxbxzjjjjjjgfda8  %%%o  GGGFAAGHCMnxxxmmZACmAHHGDBBMZFAmmmmCACCCCAZSAZCCCVVMVZZFFZZBCmmmBmmnxq .@%%o .uaffgjjjjjzzxbxxjj$ o",
"  8jxmmmbzzjjjjljfdu8  o%%%  GGZZAFFFMMnxxxmmCCCMAHHGAmNBZFFmmnmVBmmmNZZAAAZZCZCBMCZZZZCmbbxxnmMmx0 .o%%o .aaffjjjjjjzzmmnmkj$ o",
". 9lxma>>>::;---;;;=$  ....  5<<<6<66,,>>>>>,,,,,<666<,,,<56,,>>,,,,,,6,6<<6,,44,,,,,4,,,>>>>>,,>>&  .o .  =;;-;-:-:::>>,xmzj& o",
". 9zbm6                                                                                                                  kmzz& o",
"  9lxb6  o..o oo...o. .>:>:  %##################%#######################@%########################o O:>3$  o...o.o....o  jbzj& o",
". 0jzz6 oo%%%%%%%%%oo .uauu  122222222222222222222222222222222222222222222222222222222222222222222% =uuu8  @%%%%o%%%%%%  fzzk$ o",
". 8jjk4 .%%%%%%%%%%%o Xdaaa  222222222222222222222222222222222222222222222222222222222222222222222* =add9  %%%%o@%%%%%%  fkjj& o",
"  8jjj4 .%%%%%%%%%%%o Xfjdj  222222222222222222222222222222222222222222222222222222222222222222222% =ffft  @%%%%%%%%%%%  ajjj+ o",
". 8jjj4 .@%%o%%%%%%%o Xffff  222222222222222222222222222222222222222222222222222222222222222222222* ;fffq  %%%%%%%%%%%%  ajjj$ o",
". 8jjj, o@%%%%o%%%%%o Xjjjj  122222222222222222222222222222222222222222222222222222222222222222222# :jjgy  %%%%%%%%%%%%  ajjj+ o",
"  8jjj3 o%%%%%%%%%%oo Xjjjj  222222222222222222222222222222222222222222222222222222222222222222222* :jjjt  %%%%%%%%%%%%  ajjj+ o",
". 8ljj3 oo%%%%%%%%%%o Xjjjj  222222222222222222222222222222222222222222222222222222222222222222222% :jjjy  %%%%%o%%%%%%  sjjj& o",
". 8jjj, .%%%%%%%%%%%o Xjjjj  222222222222222222222222222222222222222222222222222222222222222222222% :jjji  %%%%%%%%%%%%  ajjj$ o",
"  4jdf, .%%%%%%%%%%%o Xjjjj  122222222222222222222222222222222222222222222222222222222222222222221* :jjjy  %%%%%%%%%%%%  pffd+ o",
". 4ddd, .%%%o%%%o%%%o Xkjjj  222222222222222222222222222222222222222222222222222222222222222222222% :jjky  %%o%%%%%%%%%  ifda+ o",
". 4uuu> o%%%%%%%%%%%o Ozzkj  222222222222222222222222222222222222222222222222222222222222222222222* :jjzi  %%%%%o%%%%%%  tuui+ o",
"  3ttt; .%o%o@o%%oooo Ozzjj  222222222222222222222222222222222222222222222222222222222222222222222* :jkxi  oo@o%%ooo%%o  8ttt+ o",
".                     Xnmzk  122222222222222222222222222222222222222222222222222222222222222222222% :zzms                      o",
".                     Xmnkz  222222222222222222222222222222222222222222222222222222222222222222222* :zzma                      o",
"%%%@%%. >aafjjjjljjxxmmmmjj  222222222222222222222222222222222222222222222222222222222222222222222% ;jzmmmmzzjjjlllffaa. o%%o%%%",
"%%%%%%. 3uajdjjjjjkzxmnmnjj  222222222222222222222222222222222222222222222222222222222222222222222* :jkmmmmzzjjjjjjjjua. o%%%%%%",
"%o%%%%. >uajjjjjjjjkjzkjjua  122222222222222222222222222222222222222222222222222222222222222222222# =udjjkkjkjjjjjjaduu. o%%%%%%",
"%%%%%%o >uujdjjjjjjkjkzjjuu  222222222222222222222222222222222222222222222222222222222222222222222* =aajjzzjkjjjjjjjjyi. %%%%%%%",
".        ..X....XXXXXXXX..X  222222222222222222222222222222222222222222222222222222222222222222222%  ..XXXXXXXXX.......        o",
".                            222222222222222222222222222222222222222222222222222222222222222222222*                            o",
"  qbxz6 @11111111111111111111122222222222222222222222222222222222222222222222222222222222222222222111111111111111111111  fbbv$ o",
". iCMm7 %22212222212222212222222222222222222222222222222222222222222222222222222222222222222222222222212222212222212221. bMCB= o",
". pZMm7 %22222222222222222222222222222222222222222222222222222222222222222222222222222222222222222222222222222222222222  mAAA; o",
"  pDMm7 #22222222222222222222222222222222222222222222222222222222222222222222222222222222222222222222222222222222222222. NFFA; o",
". pCMM8 #22222222222222222222222222222222222222222222222222222222222222222222222222222222222222222222222222222222222222  nZmm= o",
". iBBZ8 #22222222222222222222222222222222222222222222222222222222222222222222222222222222222222222222222222222222222222. nCmb= o",
". qvmm8 #22222222222222222222222222222222222222222222222222222222222222222222222222222222222222222222222222222222222222  bCmm& o",
"  9zbm7 #22222222222222222222222222222222222222222222222222222222222222222222222222222222222222222222222222222222222222. bCNm= o",
". tnnx6 #22222222222222222222222222222222222222222222222222222222222222222222222222222222222222222222222222222222222221  NFZC; o",
". iNnx4 #22222222222222222222222222222222222222222222222222222222222222222222222222222222222222222222222222222222222222. CHAC- o",
". qnxz4 #22222222222222222222222222222222222222222222222222222222222222222222222222222222222222222222222222222222222222  CGAC= o",
". qxzk4 #22222222222222222222222222222222222222222222222222222222222222222222222222222222222222222222222222222222222222. BGZC& o",
". qbnn6 #22222222222222222222222222222222222222222222222222222222222222222222222222222222222222222222222222222222222222  CHGG= %",
"  wmmM8 #22222222222222222222222222222222222222222222222222222222222222222222222222222222222222222222222222222222222222. AHHH- o",
". iMMm7 #22222222222222222222222222222222222222222222222222222222222222222222222222222222222222222222222222222222222222  ZHHH- o",
"  pACm7 #22222222222222222222222222222222222222222222222222222222222222222222222222222222222222222222222222222222222222. CHHH- o",
". pACm8 #22222222222222222222222222222222222222222222222222222222222222222222222222222222222222222222222222222222222222  NFAD- o",
". pDmn6 #22222222222222222222222222222222222222222222222222222222222222222222222222222222222222222222222222222222222221. xMmm& o",
". pZmn6 #22222222222222222222222222222222222222222222222222222222222222222222222222222222222222222222222222222222222222  vCNm= o",
"  ennm6 #22222222222222222222222222222222222222222222222222222222222222222222222222222222222222222222222222222222222222  NZZZ= X",
". qbnn6 #22222222222222222222222222222222222222222222222222222222222222222222222222222222222222222222222222222222222222. vZZZ; o",
". qxxx6 #22222222222222222222222222222222222222222222222222222222222222222222222222222222222222222222222222222222222222  zmCA= o",
". 0xxx6 #22222222222222222222222222222222222222222222222222222222222222222222222222222222222222222222222222222222222222. jvCC; o",
". 8jff, #22222222222222222222222222222222222222222222222222222222222222222222222222222222222222222222222222222222222222. zmmN= o",
"  8jff, #22222222222222222222222222222222222222222222222222222222222222222222222222222222222222222222222222222222222222  gbmM= o",
". qnzk4 #22222222222222222222222222222222222222222222222222222222222222222222222222222222222222222222222222222222222222. fbmC= o",
". qxzj4 #22222222222222222222222222222222222222222222222222222222222222222222222222222222222222222222222222222222222222  gbmC= o",
"  iCVm8 #22222222222222222222222222222222222222222222222222222222222222222222222222222222222222222222222222222222222222  bMMm= o",
". iMVm8 #22222222222222222222222222222222222222222222222222222222222222222222222222222222222222222222222222222222222222. bMMM= o",
". imnx6 #22222222222222222222222222222222222222222222222222222222222222222222222222222222222222222222222222222222222222. nZCC= o",
"  iCnx4 #22222222222222222222222222222222222222222222222222222222222222222222222222222222222222222222222222222222222222  nZCZ= o",
". imvz4 #22222222222222222222222222222222222222222222222222222222222222222222222222222222222222222222222222222222222222. nZCm= o",
". iNxk4 #22222222222222222222222222222222222222222222222222222222222222222222222222222222222222222222222222222222222222  mZMM= o",
"  pAMm7 #22222222222222222222222222222222222222222222222222222222222222222222222222222222222222222222222222222222222221. zmxz& o",
". pDVm7 #22222222222222222222222222222222222222222222222222222222222222222222222222222222222222222222222222222222222222  zmzk$ o",
". pZZC0 #22222222222222222222222222222222222222222222222222222222222222222222222222222222222222222222222222222222222222  hxzx& o",
". pAZZ0 #22222222222222222222222222222222222222222222222222222222222222222222222222222222222222222222222222222222222222. gxzz$ o",
". immn6 #22222222222222222222222222222222222222222222222222222222222222222222222222222222222222222222222222222222222221. gnbx& o",
"  qnxb6 #22222222222222222222222222222222222222222222222222222222222222222222222222222222222222222222222222222222222222. zmbn= o",
". 0zjj, #22222222222222222222222222222222222222222222222222222222222222222222222222222222222222222222222222222222222222  vCMm= X",
". 0jdu> #22222222222222222222222222222222222222222222222222222222222222222222222222222222222222222222222222222222222222. mCCC= o",
". 0zjf, #22222222222222222222222222222222222222222222222222222222222222222222222222222222222222222222222222222222222222  mFAD- o",
"  qxjj4 #22222222222222222222222222222222222222222222222222222222222222222222222222222222222222222222222222222222222222. BGGH; o",
". qxxz6 #22222222222222222222222222222222222222222222222222222222222222222222222222222222222222222222222222222222222222. BFHH- o",
". innb6 #22222222222222222222222222222222222222222222222222222222222222222222222222222222222222222222222222222222222222  BFHH> o",
"  imBC0 #22222222222222222222222222222222222222222222222222222222222222222222222222222222222222222222222222222222222222. nZHH: o",
". imAGq #22222222222222222222222222222222222222222222222222222222222222222222222222222222222222222222222222222222222222  bBFH- o",
". iMCZ0 #22222222222222222222222222222222222222222222222222222222222222222222222222222222222222222222222222222222222222. xVFH- o",
". wmmn7 #22222222222222222222222222222222222222222222222222222222222222222222222222222222222222222222222222222222222222  xMAG- o",
"  immn7 #22222222222222222222222222222222222222222222222222222222222222222222222222222222222222222222222222222222222221. knCZ; o",
". iMmm7 #22222222222222222222222222222222222222222222222222222222222222222222222222222222222222222222222222222222222222  fzmm= o",
"  pCBC8 @22222222222222222222222222222222222222222222222222222222222222222222222222222222222222222222222222222222222222. szmm= o",
". sGHHr %22222222222222222222222222222222222222222222222222222222222222222222222222222222222222222222222222222222222222. gzxb$ o",
". sGHGe #22222222222222222222222222222222222222222222222222222222222222222222222222222222222222222222222222222222222222  fzbb= o",
". pGFFq #22222222222222222222222222222222222222222222222222222222222222222222222222222222222222222222222222222222222222. djnm& o",
". sGFFe #22222222222222222222222222222222222222222222222222222222222222222222222222222222222222222222222222222222222222  dknm= o",
". sHGGq #22222222222222222222222222222222222222222222222222222222222222222222222222222222222222222222222222222222222222. bVZZ= o",
". sHHGe #22222222222222222222222222222222222222222222222222222222222222222222222222222222222222222222222222222222222222  bMZZ= o",
". rmCDq #22222222222222222222222222222222222222222222222222222222222222222222222222222222222222222222222222222222222222. mAMm= o",
". qmCS0 #22222222222222222222222222222222222222222222222222222222222222222222222222222222222222222222222222222222222222. mANm= o",
". iCBm8 #22222222222222222222222222222222222222222222222222222222222222222222222222222222222222222222222222222222222222  BHHH- o",
"  aCMm7 #22222222222222222222222222222222222222222222222222222222222222222222222222222222222222222222222222222222222222. CHHH- o",
". qxkj, #22222222222222222222222222222222222222222222222222222222222222222222222222222222222222222222222222222222222222. BFHH- o",
"  9xjf3 #22222222222222222222222222222222222222222222222222222222222222222222222222222222222222222222222222222222222222  NFHK- o",
". 8lkk4 #22222222222222222222222222222222222222222222222222222222222222222222222222222222222222222222222222222222222222  NDHJ- o",
". 8jjk4 #22222222222222222222222222222222222222222222222222222222222222222222222222222222222222222222222222222222222222. mDGH- o",
"  9xzz4 #22222222222222222222222222222222222222222222222222222222222222222222222222222222222222222222222222222222222222  nCAD- o",
". qnzk4 #22222222222222222222222222222222222222222222222222222222222222222222222222222222222222222222222222222222222222  nCZA; o",
". immn6 #22222212222222222222222222222222222222222222222222222222222222222222222222222222222222222222222222222222222222. zmZA= o",
". iCmm8 @12121212122122222222222222222222222222222222222222222222222222222222222222222222222222222222222222222212122122  jnCA- o",
". &<,,+ .@@@@@@@@@@@@o@o@o@o@222222222222222222222222222222222222222222222222222222222222222222222*oo@ooo@oo@o@o@o@@o@@  ;>,<O o",
".                            222222222222222222222222222222222222222222222222222222222222222222222%                            o",
".ooooo. $366787888888808744  122222222222222222222222222222222222222222222222222222222222222222221* #467800888778884644  .oooooo",
"%%o%%%. >uajfjjjjjjjkzzjjua  222222222222222222222222222222222222222222222222222222222222222222222* =udjkkzjjjjjjjjjfyu. o%%%%%%",
"%%%%%%. >aaffjjjjjjzzxxzzfd  222222222222222222222222222222222222222222222222222222222222222222222% ;djzzbxkzjjjjjjfjuu. o%%%%%%",
"%%%%%%. >uajgjjjjjjzxmmmnjj  222222222222222222222222222222222222222222222222222222222222222222222* :jzmmmnzzjjjjjjfjai. o%%%@%%",
"o.....  $>>3,<334446660mmjj  122222222222222222222222222222222222222222222222222222222222222222222% :jzmj766654433333>>. o....oo",
".                     Xmnkz  222222222222222222222222222222222222222222222222222222222222222222222* :zzma                      o",
". %&$=O  . ..... ...  Oxxkk  222222222222222222222222222222222222222222222222222222222222222222222% :kznp  .. .. .. . .  $===  o",
"  4uuu> .#%%%%%%%%%%o Xxzkj  222222222222222222222222222222222222222222222222222222222222222222222* :jkzp  %%%o%%%%%%%%  tauiO o",
". 6aaa> .%%%%%%%%%%%o Xzkjj  122222222222222222222222222222222222222222222222222222222222222222222# :jjzi  %%%%%%%%%%%%  yaaa$ o",
". 6djd3 o%%%%%%%%%%%o Xjjjj  222222222222222222222222222222222222222222222222222222222222222222222* :jjjy  %%%%%%%%%%o%  ajad$ o",
". 6jdj3 .%@%%o%%%%%%o Xjjjj  222222222222222222222222222222222222222222222222222222222222222222222% :jjjw  %%%%%%%%%%%%  afdj& o",
". 7jjj, .%%%%%%%%%%%o Xjjjj  222222222222222222222222222222222222222222222222222222222222222222222% ;jjji  %%%%%%%%%%%%  pjjj& o",
"  8jjj4 .%%%%%%%%%%%o Xjjjj  122222222222222222222222222222222222222222222222222222222222222222221* ;jjjt  %%%%%%%%%%%%  sjjj& o",
". 8jjj, .%%%o%%%%%o%o .jjjj  222222222222222222222222222222222222222222222222222222222222222222222* ;jjjy  %%o%%%%%%%%%  sjjj+ o",
". 7jjj4 o%%%%%%%%%%%o Xjgjg  222222222222222222222222222222222222222222222222222222222222222222222% ;jjjt  %%%%%%%%%%%%  ajjj$ o",
"  8jjj4 .%%%%%%%%%%%o Xffff  222222222222222222222222222222222222222222222222222222222222222222222* =jdaq  %%%%%o%o%%%%  djjj+ o",
". 8jjl4 .%%%%%%%%%%%o .fddd  122222222222222222222222222222222222222222222222222222222222222222222% ;ddjq  %%%%%%%%%%%%  djjj& o",
". 8lzz6 o%o%%%%%%%%%o .uuuu  222222222222222222222222222222222222222222222222222222222222222222222* =uua8  %%%%%%%%%%%%  fzkj+ o",
"  0jzc5  %%%%%%o%%%%o .aauu  222222222222222222222222222222222212222222222222222222222212222222222% &uuu8  %%%%O%%%%%%%  fzzk& o",
". 9zxm6                                                                                                                  zmkk$ o",
". 9lbn6                                                                                                                  lmzz$ o",
"  8jxmMmxzkjjjjgffda8  %o%%  xbVZSFGFMmxznnnnmBZFFASFGHHFDmmzxzxnmCZSFSZCCCZCCnxkjznCZCMmmmnmMCACmy .%o%o .aaffjjjjjjzzmmnmkj$ o",
". 8lxmnmnzkjjjjjjfdu8  %%%%  xbCBFFHHMmxzxmnnmmAFSSFFHKHFAmmbzzxnnVVFSZZCVCVZZnxkjxnCZCMmnnmmCZACmi .%%%o .aaffjjjjjjzznmmmkj$ o",
". 4ajjjkzjkjjjjjjfdu8  %%%%  mMCCHFFFmmxzmMZAGHHGHKHHKKHSZmmxxxxmnmMZZnnCCMVmmmmxkzxMCVMAFZCMmmMmx0  %%%o .iaffjjgjjjkkzzkjda+ o",
"  4ajjjkkkjjjjjjjfdu8  %%%%  MMCCFHFFmnxzMVZFHHHGHKHKKKHAZCmxxxxnmmmCCxxCCMMmmmmzzzzMCVmAGZCBmmMnz0 .%%%o .uuffjjjjjjkjzkjjda$ o",
".  XXXoX.XX..X.X..X..  %o%%  OOOOOOOOXOX.OOOOOOOO+O++O+OOOOOXXXOXOOXOOOXXOOXOXOXXXX.XOOOOOOOOXOXXX  .%%%o  .XX..X.XX.XXXXX..X  o",
".                      %%%o                                                                         .%%%o                      o"
};
