/* XPM */
static char *result[] = {
/* columns rows colors chars-per-pixel */
"34 101 43 1 ",
"  c #183C3E",
". c #193C3E",
"X c #193D3E",
"o c #3E2731",
"O c #442A32",
"+ c #482B33",
"@ c #4B2C33",
"# c #4B2D33",
"$ c #553134",
"% c #553135",
"& c #5F3536",
"* c #733E39",
"= c #733F39",
"- c #1B403F",
"; c #1B423F",
": c #1D463F",
"> c #1E483F",
", c #3F583F",
"< c #43513E",
"1 c #42513F",
"2 c #51533C",
"3 c #51533D",
"4 c #5F553A",
"5 c #60453B",
"6 c #64443B",
"7 c #69423A",
"8 c #1F4C40",
"9 c #225441",
"0 c #245841",
"q c #255A41",
"w c #265B41",
"e c #255B42",
"r c #265C41",
"t c #265C42",
"y c #265D42",
"u c #335A40",
"i c #984434",
"p c #BE492F",
"a c #BE4A2F",
"s c #A14633",
"d c #A64632",
"f c #B44830",
"g c None",
/* pixels */
"gggggggttttttttttttttttttttggggggg",
"gggggggttttttttttttttttttttggggggg",
"gggggyttttttttttttttttttttttyggggg",
"ggggertttttttttttttttttttttttegggg",
"gggwtttttttttttttttttttttttttteggg",
"gggwtttttt:------------>tttttteggg",
"gggwtttt09;............;90tttteggg",
"gggwtttt8................8tttteggg",
"gggwtttt8................8tttteggg",
"gggwtttt8................8tttteggg",
"gggwtttt8................8tttteggg",
"gggwtttt8............ ...8tttteggg",
"gggwtttt8...........  ...8tttteggg",
"gggwtttt8............ ...8tttteggg",
"gggwtttt8................8tttteggg",
"gggwtttt8................8tttteggg",
"gggwtttt8................8tttteggg",
"gggwtttt8................8tttteggg",
"gggwtttt8................8tttteggg",
"gggwtttt8................8tttteggg",
"gggwtttt8................8tttteggg",
"gggwtttt8................8tttteggg",
"gggwtttt8................8tttteggg",
"ggg,tttt8................8ttttuggg",
"gga4tttt8................8tttt4agg",
"ggi3tttt8................8tttt2igg",
"gg*<tytt8................8tttt1*gg",
"pd*<tttt8................8tttt1*dp",
"fd*<tttt8................8tttt1*sf",
"***<tttt8................8tttt1***",
"***<tttt8................8tttt1***",
"***<tttt8................8tttt1***",
"***<tttt8..........X.....8tttt1***",
"***<tttt8..........X.....8tttt1***",
"***<tttt8................8tttt1***",
"***<tttt8................8tttt1***",
"***<tttt8................8tttt1***",
"***<tttt8................8tttt1***",
"***<tttt8................8tttt1***",
"***<tttt8................8tttt1***",
"***<tttt8................8tttt1***",
"***<tttt8................8tttt1***",
"***<tttt8................8tttt1***",
"***<tttt8................8tttt1***",
"***<tttt8................8tttt1***",
"***<tttt8................8tttt1***",
"***<tttt8................8tttt1*==",
"***<tttt8................8tttt1***",
"***<tttt8................8tttt1***",
"***<tttt8................8tttt1***",
"***<tttt8................8tttt1***",
"***<tttt8................8tttt1***",
"***<tttt8................8tttt1***",
"***<tttt8X...............8tttt1***",
"***<tttt8................8tttt1***",
"***<tttt8................8tttt1***",
"***<tttt8................8tttt1***",
"***<tttt8................8tttt1***",
"***<tttt8................8tttt1***",
"***<tttt8................8tttt1***",
"***<tttt8.XX.............8tttt1***",
"***<tttt8................8yttt1***",
"***<tttt8................8tttt1***",
"***<tttt8...X............8tttt1***",
"***<tttt8................8tttt1***",
"***<tttt8................8tttt1***",
"***<tttt8................8tttt1***",
"***<tttt8................8tttt1***",
"***<tttt8...X............8tttt1***",
"***<tttt8................8tttt1***",
"***<tttt8................8tttt1***",
"***<tttt8................8tttt1***",
"***<tttt8................8tttt1***",
"***<tttt8................8tttt1***",
"***<tttt8................8tttt1***",
"***<tttt8................8tttt1***",
"***<tttt8................8tttt1***",
"***<tttt8................8tttt1***",
"***<tttt8................8tttt1***",
"***<tttt8................8tttt1***",
"***<tttt8................8tttt1***",
"***<tttt8................8tttt1***",
"***<tttt8................8tttt1***",
"***<tttt8................8tttt1***",
"***<tttt8................8tttt1***",
"***<tttt8................8tttt1***",
"***<tttt8................8tttt1***",
"***<tttt8................8tttt1***",
"***<tttt8................8tttt1***",
"***<tttt8................8tttt1***",
"***<ttttq0000000000000000qtttt1***",
"***<tttttttttttttttttttttttttt1***",
"***<tttttttttttttttttttttttttt1***",
"***<tttttttttttttttttttttttttt1***",
"***<tttttttttttttttttttttttttt1***",
"#%*6555555555555555555555555557*$#",
"o@******************************#o",
"o@******************************#o",
"oO&&&&&&&&&&&&&&&&&&&&&&&&&&&&&&+o",
"oooooooooooooooooooooooooooooooooo",
"gggggggggggggggggggggggggggggggggg"
};
