/* XPM */
static char *result[] = {
/* columns rows colors chars-per-pixel */
"96 128 19 1 ",
"  c #183C3E",
". c #193C3E",
"X c #193D3E",
"o c #193C3F",
"O c #265C42",
"+ c #275C42",
"@ c #265D42",
"# c #265C43",
"$ c #3A4466",
"% c #3B4466",
"& c #3A4467",
"* c #3E8948",
"= c #3E8949",
"- c #63C74D",
"; c #5A6888",
": c #5A6988",
"> c #5B6988",
", c #5A6989",
"< c None",
/* pixels */
"<<<<..................................................................oo....................<<<<",
"<<<<..................................................................oo....................<<<<",
"<<..OOOOOOOOOOOOOOOOOOOOOOOOOOOOOOOOOOOOOOOOOOOOOOOOOOOOOOOOOOOOOOOOOOOOOOOOOOOOOOOOOOOOOOOO..<<",
"<<..OOOOOOOOOOOOOOOOOOOOOOOOOOOOOOOOOOOOOOOOOOOOOOOOOOOOOOOOOOOOOOOOOOOOOOOOOOOOOOOOOOOOOOOO..<<",
"..OOOOOOOOOOOOOOOOOOOOOOOOOOOOOOOOOOOOOOOOOOOOOOOOOOOOOOOOOOOOOOOOOOOOOOOOOOOOOOOOOOOOOOOOOOOO..",
"..OOOOOOOOOOOOOOOOOOOOOOOOOOOOOOOOOOOOOOOOOOOOOOOOOOOOOOOOOOOOOOOOOOOOOOOOOOOOOOOOOOOOOOOOOOOO..",
"..OOOO....................................................................................OOOO..",
"..OOOO....................................................................................OOOO..",
"..OOOO..OOOOOOOOOOOOOO@@OOOOOOOOOOOOOOOOOOOOOOOOOOOOOOOOOOOOOOOOOOOOOOOO++OOOOOOOOOOOOOO..OOOO..",
"..OOOO..OOOOOOOOOOOOOO@@OOOOOOOOOOOOOOOOOOOOOOOOOOOOOOOOOOOOOOOOOOOOOOOO++OOOOOOOOOOOOOO..OOOO..",
"..OOOO..OO::::::::::::::::::::::::::::::::::::::::::::::::::::::::::::::::::::::::::::OO..OOOO..",
"..OOOO..OO::::::::::::::::::::::::::::::::::::::::::::::::::::::::::::::::::::::::::::OO..OOOO..",
"..OOOO..OO::::::::::::::::::::::::::::::::::::::::::::::::::::::::::::::::::::::::::::OO..OOOO..",
"..OOOO..OO::::::::::::::::::::::::::::::::::::::::::::::::::::::::::::::::::::::::::::OO..OOOO..",
"..OOOO..OO::::::::::::::::::::::::::::::::::::::::::::::::::::::::::::::::::::::::::::OO..OOOO..",
"..OOOO..OO::::::::::::::::::::::::::::::::::::::::::::::::::::::::::::::::::::::::::::OO..OOOO..",
"..OOOO..OO::::::::::::::::::::::::::::::::::::::::::::::::::::::::::::::::::::::::::::OO..OOOO..",
"..OOOO..OO::::::::::::::::::::::::::::::::::::::::::::::::::::::::::::::::::::::::::::OO..OOOO..",
"..OOOO..OO::::::::::........................................................::::::::::OO..OOOO..",
"..OOOO..OO::::::::::........................................................::::::::::OO..OOOO..",
"..OOOO..OO::::::::............................................................::::::::OO..OOOO..",
"..OOOO..OO::::::::............................................................::::::::OO..OOOO..",
"..OOOO..OO::::,,....::::::::::::::::::::::::::::::::::::::::::::::::::::::::....::::::OO..OOOO..",
"..OOOO..OO::::,,....::::::::::::::::::::::::::::::::::::::::::::::::::::::::....::::::OO..OOOO..",
"..OOOO..OO::::::....::::::::::::::::::::::::::::--::::::::::::::::::::,,::::....::::::OO..OOOO..",
"..OOOO..OO::::::....::::::::::::::::::::::::::::--::::::::::::::::::::,,::::....::::::OO..OOOO..",
"..OOOO  OO::::::....::::::::::::::::::::::::::****--::::::::::::::::::::::::....::::::OO..OOOO..",
"..OOOO  OO::::::....::::::::::::::::::::::::::****--::::::::::::::::::::::::....::::::OO..OOOO..",
"..OOOO..OO::::::....::::::::::::::::::::::::::****--::::::::::::::::::::::::....::::::OO..OOOO..",
"..OOOO..OO::::::....::::::::::::::::::::::::::****--::::::::::::::::::::::::....::::::OO..OOOO..",
"..OOOO..OO::::::....::::::::::::::::::::::::********--::::::::::::::::::::::....::::::OO..OOOO..",
"..OOOO..OO::::::....::::::::::::::::::::::::********--::::::::::::::::::::::....::::::OO..OOOO..",
"..OOOO..OO::::::....::::::::::::::::::::::::********--::::::::::::::::::::::....::::::OO..OOOO..",
"..OOOO..OO::::::....::::::::::::::::::::::::********--::::::::::::::::::::::....::::::OO..OOOO..",
"..OOOO..OO::::::....::::::::::::::::::::::************--::::::::::::::::::::....::::::OO..OOOO..",
"..OOOO..OO::::::....::::::::::::::::::::::************--::::::::::::::::::::....::::::OO..OOOO..",
"..OOOO..OO::::::....::::::::::::::::::::::**==********--::::::::::::::::::::....::::::OO..OOOO..",
"..OOOO..OO::::::....::::::::::::::::::::::**==********--::::::::::::::::::::....::::::OO..OOOO..",
"  OOOO..OO::::::....::::::::::::::::::::****************--::::::::::::::::::....::::::OO..OOOO..",
"  OOOO..OO::::::....::::::::::::::::::::****************--::::::::::::::::::....::::::OO..OOOO..",
"..OOOO..OO::::::....::::::::::::::::::::****************--::::::::::::::::::....::::::OO..OOOO..",
"..OOOO..OO::::::....::::::::::::::::::::****************--::::::::::::::::::....::::::OO..OOOO..",
"..OOOO..OO::::::....::::::::::::::::::********************--::::::::::::::::....::::::OO..OOOO..",
"..OOOO..OO::::::....::::::::::::::::::********************--::::::::::::::::....::::::OO..OOOO..",
"..OOOO..OO::::::....::::::::::::::::::********************--::::::::::::::::....::::,,OO..OOOO..",
"..OOOO..OO::::::....::::::::::::::::::********************--::::::::::::::::....::::,,OO..OOOO..",
"..OOOO..OO::::::....::::::::::::::::******------------******--::>>::::::::::....::::::OO..OOOO..",
"..OOOO..OO::::::....::::::::::::::::******------------******--::>>::::::::::....::::::OO..OOOO..",
"..OOOO..OO::::::....::::::::::::::::**----**--------**----**--::::::::::::::....::::::OO..OOOO..",
"..OOOO..OO::::::....::::::::::::::::**----**--------**----**--::::::::::::::....::::::OO..OOOO..",
"..OOOO..OO::::::....::::::::::::::----****--********--****------::::::::;;::....::::::OO..OOOO..",
"..OOOO..OO::::::....::::::::::::::----****--********--****------::::::::;;::....::::::OO..OOOO..",
"..OOOO..OO::::::....::::::::::::::******--****----****--******--::::::::::::....::::::OO..OOOO..",
"..OOOO..OO::::::....::::::::::::::******--****----****--******--::::::::::::....::::::OO..OOOO..",
"..OOOO..OO::::::....::::::::::::********--**--------**--********--::::::::::....::::::OO..OOOO..",
"..OOOO..OO::::::....::::::::::::********--**--------**--********--::::::::::....::::::OO..OOOO..",
"..OOOO..OO::::::....::::::::::::--******--**--------**--******----::::::::::....::::::OO..OOOO..",
"..OOOO..OO::::::....::::::::::::--******--**--------**--******----::::::::::....::::::OO..OOOO..",
"..OOOO..OO::::::....::::::::::****----**--****----****--**----****--::::::::....::::::OO..OOOO..",
"..OOOO..OO::::::....::::::::::****----**--****----****--**----****--::::::::....::::::OO..OOOO..",
"..OOOO..OO::::::....::::::::::********------********------********--::::::::....::::::OO..OOOO..",
"..OOOO..OO::::::....::::::::::********------********------********--::::::::....::::::OO..OOOO..",
"..OOOO..OO::::::....::::::::**************------------**************--::::::....::::::OO..OOOO..",
"..OOOO..OO::::::....::::::::**************------------**************--::::::....::::::OO..OOOO..",
"..OOOO..OO::::::....::::::::****************************************--::::::....::::::OO..OOOO..",
"..OOOO..OO::::::....::::::::****************************************--::::::....::::::OO..OOOO..",
"..OOOO..OO::::::....::::::**********==********************************--::::....::::::OO..OOOO..",
"..OOOO..OO::::::....::::::**********==********************************--::::....::::::OO..OOOO..",
"..OOOO..OO::::::....::::::********************************************--::::....::::::OO..OOOO..",
"..OOOO..OO::::::....::::::********************************************--::::....::::::OO..OOOO..",
"..OOOO..OO::::::....::::************************************************--::....::::::OO..OOOO..",
"..OOOO..OO::::::....::::************************************************--::....::::::OO..OOOO..",
"..OOOO..OO::::::....::::************************************************--::....::::::OO..OOOO..",
"..OOOO..OO::::::....::::************************************************--::....::::::OO..OOOO..",
"..OOOO..OO::::::....::::::::::::::::::::::::::::::::::::::::::::::::::::::::....::::::OO..OOOO..",
"..OOOO..OO::::::....::::::::::::::::::::::::::::::::::::::::::::::::::::::::....::::::OO..OOOO..",
"..OOOO..OO::::::....::::::::::::::::::;;::::::::::::::::::::::::::::::::::::....::::::OO..OOOO..",
"..OOOO..OO::::::....::::::::::::::::::;;::::::::::::::::::::::::::::::::::::....::::::OO..OOOO..",
"..OOOO..OO::::::::............................................................::::::::OO..OOOO..",
"..OOOO..OO::::::::............................................................::::::::OO..OOOO..",
"..OOOO..OO::::::::::........................................................::::::::::OO..OOOO..",
"..OOOO..OO::::::::::........................................................::::::::::OO..OOOO..",
"..OOOO..OO::::::::::::::::::::::::::::::::::::::::::::::::::::::::::::::::::::::::::::OO..OOOO..",
"..OOOO..OO::::::::::::::::::::::::::::::::::::::::::::::::::::::::::::::::::::::::::::OO..OOOO..",
"..OOOO..OO::::::::::::::::::::::::::::::::::::::::::::::::::::::::::::::::::::::::::::OO..OOOO..",
"..OOOO..OO::::::::::::::::::::::::::::::::::::::::::::::::::::::::::::::::::::::::::::OO..OOOO..",
"..OOOO..OO::::::::::::::::::::::::::::::::::$$$$$$$$::::::::::::::::::::::::::::::::::OOXXOOOO..",
"..OOOO..OO::::::::::::::::::::::::::::::::::$$$$$$$$::::::::::::::::::::::::::::::::::OOXXOOOO..",
"..OOOO..OO::::::::::::::::::::::::::::::$$$$$$$$$$$$$$$$::::::::::::::::::::::::::::::OO..OOOO..",
"..OOOO..OO::::::::::::::::::::::::::::::$$$$$$$$$$$$$$$$::::::::::::::::::::::::::::::OO..OOOO..",
"..OOOO..OO::::::::::::::::::::::::::::$$$$$$$$$$$$$$$$$$$$::::::::::::::::::::::::::::OO..OOOO..",
"..OOOO..OO::::::::::::::::::::::::::::$$$$$$$$$$$$$$$$$$$$::::::::::::::::::::::::::::OO..OOOO..",
"..OOOO..OO$$$$$$$$$$$$$$$$$$$$$$$$$$$$$$$$$$$$$$$$$$$$$$$$$$$$$$$$$$$$$$$$$$$$$$$$$$$$OO..OOOO..",
"..OOOO..OO$$$$$$$$$$$$$$$$$$$$$$$$$$$$$$$$$$$$$$$$$$$$$$$$$$$$$$$$$$$$$$$$$$$$$$$$$$$$OO..OOOO..",
"..OOOO..OO$$$$$$$$$$$$$$$$$$$$$$$$$$$$$$$$$$$$$$$$$$$$$$$$$$$$$$$$$$$$$$$$$$$$$$$$$$$$OO..OOOO..",
"..OOOO..OO$$$$$$$$$$$$$$$$$$$$$$$$$$$$$$$$$$$$$$$$$$$$$$$$$$$$$$$$$$$$$$$$$$$$$$$$$$$$OO..OOOO..",
"..OOOO..OO$$$$$$$$$$$$$$$$$$$$$$$$$$$$$$$$$$$$$$$$$$$$$$$$$$$$$$$$$$$$$$$$$$$$$$$$$$$$OO..OOOO..",
"..OOOO..OO$$$$$$$$$$$$$$$$$$$$$$$$$$$$$$$$$$$$$$$$$$$$$$$$$$$$$$$$$$$$$$$$$$$$$$$$$$$$OO..OOOO..",
"..OOOO..OO$$$$$$$$$$$$$$$$$$$$$$$$$$$$$$$$$$$$$$$$$$$$$$$$$$$$$$$$$$$$$$$$$$$$$$$$$$$$OO..OOOO..",
"..OOOO..OO$$$$$$$$$$$$$$$$$$$$$$$$$$$$$$$$$$$$$$$$$$$$$$$$$$$$$$$$$$$$$$$$$$$$$$$$$$$$OO..OOOO..",
"..OOOO..OO$$$$$$$$$$$$$$$$$$$$$$$$$$$$$$$$$$$$$$$$$$$$$$$$$$$$$$$$$$$$$$$$$$$$$$$$$$$$OO..OOOO..",
"..OOOO..OO$$$$$$$$$$$$$$$$$$$$$$$$$$$$$$$$$$$$$$$$$$$$$$$$$$$$$$$$$$$$$$$$$$$$$$$$$$$$OO..OOOO..",
"..OOOO..OO$$$$$$$$$$$$$$$$$$$$$$$$$$$$$$$$$$$$$$$$$$$$$$$$$$$$$$$$$$$$&&$$$$$$$$$$$$$$OO..OOOO..",
"..OOOO..OO$$$$$$$$$$$$$$$$$$$$$$$$$$$$$$$$$$$$$$$$$$$$$$$$$$$$$$$$$$$$&&$$$$$$$$$$$$$$OO..OOOO..",
"..OOOO..OO$$$$$$$$$$$$$$$$$$$$$$$$$$$$$$$$$$$$$$$$$$$$$$$$$$$$$$$$$$$$$$$$$$$$$$$$$$$$OOXXOOOO..",
"..OOOO..OO$$$$$$$$$$$$$$$$$$$$$$$$$$$$$$$$$$$$$$$$$$$$$$$$$$$$$$$$$$$$$$$$$$$$$$$$$$$$OOXXOOOO..",
"ooOOOO..OO$$$$$$%%$$$$&&$$$$$$$$$$$$$$$$$$$$$$$$$$$$$$$$$$$$$$$$$$$$$$$$$$$$$$$$$$$$$$OO..OOOO..",
"ooOOOO..OO$$$$$$%%$$$$&&$$$$$$$$$$$$$$$$$$$$$$$$$$$$$$$$$$$$$$$$$$$$$$$$$$$$$$$$$$$$$$OO..OOOO..",
"..OOOO..OO::::::::::::::::::::::::$$$$$$$$$$$$$$$$$$$$$$$$$$$$::::::::::::::::::::::::OO..OOOO..",
"..OOOO..OO::::::::::::::::::::::::$$$$$$$$$$$$$$$$$$$$$$$$$$$$::::::::::::::::::::::::OO..OOOO..",
"..OOOO..OO::::::::::::::::::::::::::$$$$$$$$$$$$$$$$$$$$$$$$::::::::::::::::::::::::::OO..OOOO..",
"..OOOO..OO::::::::::::::::::::::::::$$$$$$$$$$$$$$$$$$$$$$$$::::::::::::::::::::::::::OO..OOOO..",
"..OOOO..OO::::::::::::::::::::::::::::$$$$$$$$$$$$$$$$$$$$::::::::::::::::::::::::::::OO..OOOO..",
"..OOOO..OO::::::::::::::::::::::::::::$$$$$$$$$$$$$$$$$$$$::::::::::::::::::::::::::::OO..OOOO..",
"..OOOO..OO::::::::::::::::::::::::::::::$$$$$$$$$$$$$$$$::::::::::::::::::::::::::::::OO..OOOO..",
"..OOOO..OO::::::::::::::::::::::::::::::$$$$$$$$$$$$$$$$::::::::::::::::::::::::::::::OO..OOOO..",
"..OOOO..OO::::,,::::::::::::::::::::::::::::$$$$$$$$::::::::::::::::::::::::::::::::::OO..OOOO..",
"..OOOO..OO::::,,::::::::::::::::::::::::::::$$$$$$$$::::::::::::::::::::::::::::::::::OO..OOOO..",
"..OOOO..OO::::::::::::::::::::::::::::::::::::::::::::::::::::::::::::::::::::::::::::OO..OOOO..",
"..OOOO..OO::::::::::::::::::::::::::::::::::::::::::::::::::::::::::::::::::::::::::::OO..OOOO..",
"..OOOO..............................................  ....................................OOOO..",
"..OOOO..............................................  ....................................OOOO..",
"..OOOOOOOOOOOOOOOOOOOOOOOOOOOOOOOOOOOOOOOOOOOOOOOOOOOOOOOOOOOOOOOOOOOOOOOOOOOOOOOOOOOOOOOOOOOO..",
"..OOOOOOOOOOOOOOOOOOOOOOOOOOOOOOOOOOOOOOOOOOOOOOOOOOOOOOOOOOOOOOOOOOOOOOOOOOOOOOOOOOOOOOOOOOOO..",
"<<..OO##OOOOOOOOOOOOOOOOOOOOOOOOOOOOOOOOOOOOOOOOOOOOOOOOOOOOOOOOOOOOOOOOOOOOOOOO++OOOOOOOOOO..<<",
"<<..OO##OOOOOOOOOOOOOOOOOOOOOOOOOOOOOOOOOOOOOOOOOOOOOOOOOOOOOOOOOOOOOOOOOOOOOOOO++OOOOOOOOOO..<<",
"<<<<........................................................................................<<<<",
"<<<<........................................................................................<<<<"
};
