/* XPM */
static char *result[] = {
/* columns rows colors chars-per-pixel */
"34 85 7 1 ",
"  c #62C54C",
". c #62C64C",
"X c #62C74D",
"o c #63C74D",
"O c #62C64E",
"+ c #63C84D",
"@ c None",
/* pixels */
"@@@@@@@@@@+XXXXXXXXXXXXo@@@@@@@@@@",
"@@@@@@@@@@Ooooooooooooo.@@@@@@@@@@",
"@@@@@@@@ oooooooooooooooo @@@@@@@@",
"@@@@@@@@ oooooooooooooooo @@@@@@@@",
"@@@@@@@@ oooooooooooooooo @@@@@@@@",
"@@@@@@@@ oooooooooooooooo @@@@@@@@",
"@@@@@@@@ oooooooooooooooo @@@@@@@@",
"@@@@@@@@ oooooooooooooooo @@@@@@@@",
"@@@@@@@@ oooooooooooooooo @@@@@@@@",
"@@@@@@@@ oooooooooooooooo @@@@@@@@",
"@@@@@@@@ oooooooooooooooo @@@@@@@@",
"@@@@@@@@ oooooooooooooooo @@@@@@@@",
"@@@@@@@@ oooooooooooooooo @@@@@@@@",
"@@@@@@@@ oooooooooooooooo @@@@@@@@",
"@@@@@@@@ oooooooooooooooo @@@@@@@@",
"@@@@@@@@ oooooooooooooooo @@@@@@@@",
"@@@@@@@@ oooooooooooooooo @@@@@@@@",
"@@@@@@@@ oooooooooooooooo @@@@@@@@",
"@@@@@@@@ oooooooooooooooo @@@@@@@@",
"@@@@@@@@ oooooooooooooooo @@@@@@@@",
"@@@@@@@@ oooooooooooooooo @@@@@@@@",
"@@@@@@@@ oooooooooooooooo @@@@@@@@",
"@@@@@@@@ oooooooooooooooo @@@@@@@@",
"@@@@@@@@ oooooooooooooooo @@@@@@@@",
"@@@@@@@@ oooooooooooooooo @@@@@@@@",
"@@@@@@@@ oooooooooooooooo @@@@@@@@",
"@@@@@@@@ oooooooooooooooo @@@@@@@@",
"@@@@@@@@ oooooooooooooooo @@@@@@@@",
"@@@@@@@@ oooooooooooooooo @@@@@@@@",
"@@@@@@@@ oooooooooooooooo @@@@@@@@",
"@@@@@@@@ oooooooooooooooo @@@@@@@@",
"@@@@@@@@ oooooooooooooooo @@@@@@@@",
"@@@@@@@@ oooooooooooooooo @@@@@@@@",
"@@@@@@@@ oooooooooooooooo @@@@@@@@",
"@@@@@@@@ oooooooooooooooo @@@@@@@@",
"@@@@@@@@ oooooooooooooooo @@@@@@@@",
"@@@@@@@@ oooooooooooooooo @@@@@@@@",
"@@@@@@@@ oooooooooooooooo @@@@@@@@",
"@@@@@@@@ oooooooooooooooo @@@@@@@@",
"@@@@@@@@ oooooooooooooooo @@@@@@@@",
"@@@@@@@@ oooooooooooooooo @@@@@@@@",
"@@@@@@@@ oooooooooooooooo @@@@@@@@",
"@@@@@@@@ oooooooooooooooo @@@@@@@@",
"@@@@@@@@ oooooooooooooooo @@@@@@@@",
"@@@@@@@@ oooooooooooooooo @@@@@@@@",
"@@@@@@@@ oooooooooooooooo @@@@@@@@",
"@@@@@@@@ oooooooooooooooo @@@@@@@@",
"@@@@@@@@ ooooooooooooXooo @@@@@@@@",
"@@@@@@@@ oooooooooooXXooo @@@@@@@@",
"@@@@@@@@ ooooooooXXoooooo @@@@@@@@",
"@@@@@@@@ ooooooooXXoooooo @@@@@@@@",
"@@@@@@@@ oooooooooooooooo @@@@@@@@",
"@@@@@@@@ oooooooooooooooo @@@@@@@@",
"@@@@@@@@ oooooooooooooooo @@@@@@@@",
"@@@@@@@@ oooooooooooooooo @@@@@@@@",
"@@@@@@@@ oooooooooooooooo @@@@@@@@",
"@@@@@@@@ oooooooooooooooo @@@@@@@@",
"@@@@@@@@ oooooooooooooooo @@@@@@@@",
"@@@@@@@@ oooooooooooooooo @@@@@@@@",
"@@@@@@@@ oooooooooooooooo @@@@@@@@",
"@@@@@@@@ oooooooooooooooo @@@@@@@@",
"@@@@@@@@ oooooooooooooooo @@@@@@@@",
"@@@@@@@@ oooooooooooooooo @@@@@@@@",
"@@@@@@@@ oooooooooooooooo @@@@@@@@",
"@@@@@@@@ oooooooooooooooo @@@@@@@@",
"@@@@@@@@ oooooooooooooooo @@@@@@@@",
"@@@@@@@@ oooooooooooooooo @@@@@@@@",
"@@@@@@@@ oooooooooooooooo @@@@@@@@",
"@@@@@@@@ oooooooooooooooo @@@@@@@@",
"@@@@@@@@ oooooooooooooooo @@@@@@@@",
"@@@@@@@@ oooooooooooooooo @@@@@@@@",
"@@@@@@@@ oooooooooooooooo @@@@@@@@",
"@@@@@@@@ oooooooooooooooo @@@@@@@@",
"@@@@@@@@ oooooooooooooooo @@@@@@@@",
"@@@@@@@@ oooooooooooooooo @@@@@@@@",
"@@@@@@@@ oooooooooooooooo @@@@@@@@",
"@@@@@@@@ oooooooooooooooo @@@@@@@@",
"@@@@@@@@ oooooooooooooooo @@@@@@@@",
"@@@@@@@@ oooooooooooooooo @@@@@@@@",
"@@@@@@@@ oooooooooooooooo @@@@@@@@",
"@@@@@@@@ oooooooooooooooo @@@@@@@@",
"@@@@@@@@ oooooooooooooooo @@@@@@@@",
"@@@@@@@@ oooooooooooooooo @@@@@@@@",
"@@@@@@@@ oooooooooooooooo @@@@@@@@",
"@@@@@@@@ oooooooooooooooo @@@@@@@@"
};
