/* XPM */
static char *result[] = {
/* columns rows colors chars-per-pixel */
"80 26 8 1 ",
"  c #62C54C",
". c #63C54C",
"X c #63C74C",
"o c #62C64D",
"O c #63C64D",
"+ c #62C74D",
"@ c #63C74D",
"# c None",
/* pixels */
"################################################################################",
" @@@@#+@@@@#@@@@ #@@@@#X@@@@#@@@@@#@@@@# @@@@#+@@@@#@@@@ #@@@@#X@@@@#@@@@@#@@@@#",
" @@@@#o@@@@#@@@@ #@@@@#.O@@@#@@@@@#@@@@# @@@@#+@@@@#@@@@ #@@@@#X@@@@#@@@@@#@@@@#",
" @@@@#+@@@@#@@@@ #@@@@#X@@@@#@@@@@#@@@@# @@@@#+@@@@#@@@@ #@@@@#X@@@@#@@@@@#@@@@#",
" @@@@#+@@@@#@@@@ #@@@@#X@@@@#@@@@@#@@@@# @@@@#+@@@@#@@@@ #@@@@#X@@@@#@@@@@#@@@@#",
" @@@@#+@@@@#@+@@ #@@@@#X@@@@#@@@@@#@@@@# @@@@#+@@@@#@@@@ #@@@@#X@@@@#@@@@@#@@@@#",
" @@@@#+@@@@#@@@@ #@@@@#X@@@@#@@@@@#@O@@# @@@@#+@@@@#@@@@ #@@@@#X@@@@#@@@@@#@@@@#",
" @@@@#++@@@#@@@@ #@@@@#X@@@@#@@@@@#@O@@# @@@@#+@@@@#@@@@ #@@@@#X@@@@#@@@@@#@@@@#",
" @@@@#++@@@#@@@@ #@@@@#X@@@@#@@@@@#@@@@# @@@@#+@@@@#@@@@ #@@@@#X@@@@#@@@@@#@@@@#",
" @@@@#+@@@@#@@@@ #@@@@#X@@@@#@@@@@#@@@@# @@@@#+@@@@#@@@@ #@@@@#X@@@@#@@@@@#@@@@#",
" @@@@#+@@@@#+@@@ #@@@@#X@@@@#@@@@@#@@@@# @@@@#+@@@@#@@@@ #@@@@#X@@@@#@@@@@#@@@@#",
" @@@@#+@@@@#+@@@ #@@@@#X@@@@#@@@@@#@@@@# @@@@#+@@@@#@@@@ #@@@@#X@@@@#@@@@@#@@@@#",
" @@@@#+@@@@#@@@@ #@@@@#X@@@@#@@@@@#@@@@# @@@@#+@@@@#@@@@ #@@@@#X@@@@#@@@@@#@@@@#",
" @@@@#+@@@@#@@@@ #@@@@#X@@@@#@@@@@#@@@@# @@@@#+@@@@#@@@@ #@@@@#X@@@@#@@@@@#@@@@#",
" @@@@#+@@@@#@@@@ #@@@@#X@@@@#@@@@@#@@@@# @@@@#+@@@@#@@@@ #@@@@#X@@@@#@@@@@#@@@@#",
" @@@@#+@@@@#@@X@ #@@@@#X@@@@#@@@@@#@@@@# @@@@#+@@@@#@@@@ #@@@@#X@@@@#@@@@@#@@@@#",
" @@@@#+@@@@#@@@@ #@@@@#X@@@@#@@@@@#@@@@# @@@@#+@@@@#@@@@ #@@@@#X@@@@#@@@@@#@@@@#",
" @@@@#+@@@@#@@@@ #@@@@#X@@@@#@@@@@#@@@@# @@@@#+@@@@#@@@@ #@@@@#X@@@@#@@@@@#@@@@#",
" @@@O#+@@@@#@@@@ #@@@@#X@@@@#@@@@@#@@@@# @@@@#+@@@@#@@@@ #@@@@#X@@@@#@@@@@#@@@@#",
" @@@O#+@@@@#@@@@ #@@@@#X@@@@#@@@@@#@@@@# @@@@#+@@@@#@@@@ #@@@@#X@@@@#@@@@@#@@@@#",
" @@@@#+@@@@#@@@@ #@@@@#X@@@@#@@@@@#@@@@# @@@@#+@@@@#@@@@ #@@@@#X@@@@#@@@@@#@@@@#",
" @@@@#+@@@@#@@@@ #@@@@#X@@@@#@@@@@#@@@@# @@@@#+@@@@#@@@@ #@@@@#X@@@@#@@@@@#@@@@#",
" @@@@#+@@@@#@@@@ #@@@@#X@@@@#@@@@@#@@@@# @@@@#+@@@@#@@@@ #@@@@#X@@@@#@@@@@#@@@@#",
" @@@@#+@@@@#@@@@ #@@@@#X@@@@#@@@@@#@@@@# @@@@#+@@@@#@@@@ #@@@@#X@@@@#@@@@@#@@@@#",
" @@@@#+@@@@#@@@@ #@@@@#X@@@@#@@@@@#@@@+# @@@@#+@@@@#@@@@ #@@@@#X@@@@#@@@@@#@@@@#",
"################################################################################"
};
