/* XPM */
static char *result[] = {
/* columns rows colors chars-per-pixel */
"108 33 77 1 ",
"  c #183C3E",
". c #193C3E",
"X c #193D3E",
"o c #1B403F",
"O c #1C443F",
"+ c #1E483F",
"@ c #1E4A3F",
"# c #4E6B3F",
"$ c #5C703E",
"% c #5C713E",
"& c #777A3C",
"* c #1F4C40",
"= c #204E40",
"- c #215040",
"; c #225241",
": c #235440",
"> c #225441",
", c #235441",
"< c #245641",
"1 c #245841",
"2 c #265B41",
"3 c #255A42",
"4 c #255B42",
"5 c #265B42",
"6 c #255C41",
"7 c #265C41",
"8 c #265C42",
"9 c #275C42",
"0 c #265D42",
"q c #336141",
"w c #336444",
"e c #416640",
"r c #416D46",
"t c #4E7648",
"y c #4F7648",
"u c #5C7E4A",
"i c #5C7F4A",
"p c #69874C",
"a c #77904D",
"s c #84803C",
"d c #84833F",
"f c #92853B",
"g c #9F8A3A",
"h c #AD8F39",
"j c #AD963F",
"k c #BA9439",
"l c #C89937",
"z c #D6A239",
"x c #F0A935",
"c c #FEAE34",
"v c #FEB539",
"b c #FEB53A",
"n c #FEBC3F",
"m c #84984F",
"M c #849950",
"N c #92A151",
"B c #9FAA53",
"V c #BAA041",
"C c #ADB255",
"Z c #ADB355",
"A c #BBBB57",
"S c #BABC57",
"D c #C8AF49",
"F c #C8C459",
"G c #FEC345",
"H c #F0C94E",
"J c #FECA4A",
"K c #FECA4B",
"L c #FECE4D",
"P c #E3D65D",
"I c #FED150",
"U c #FED956",
"Y c #F0DE5F",
"T c #FEE35E",
"R c #FEE761",
"E c #FFE761",
"W c None",
/* pixels */
"WWWWWWWWWWWWWWWWWWWWWWWWWWWWWWWWWWWWWWWWWWWWWWWWWWWWWWWWWWWWWWWWWWWWWWWWWWWWWWWWWWWWWWWWWWWWWWWWWWWWWWWWWWWW",
"WWWW0000000000000000000000000000000000000000000000000000000000000000000000000000000000000000000000000000WWWW",
"WW65888888888888888888888888888888888888888888888888888888888888888888888888888888888888888888888888888854WW",
"WW58888888888888888888888-***=8****;1****<,****3-***=8****;1****<,****3-***=8****;1****<,****3-***-8****,2WW",
"W088888888888888888888888O...o8....+>....-*....1O...o8....+>....-*....1O...o8.. .+>....-*....1O...O8....*80W",
"W088888$iiiiiiiiiiir88888O...o8....+>....-*....1O...o8....+>....-*....1O...o8....+>....-*....1O...O8....*80W",
"W08888ecRRRRRRRRRRYM88888O...o8....+>....-*....1O...o8....+>....-*....1O...o8....+>....-*....1O...O8....*80W",
"W08888ecRRRRRRRRERa888888O...o8....+>....-*....1O...o8....+>....-*..X.1O...o8....+>....-*....1O...O8....*80W",
"W08888ecRRRRRRRRRRa888888O...o8....+>....-*....1O...o8....+>....-*....1O...o8....+>....-*....1O...O8....*80W",
"W0888#zURRRRRRRRRMw888888O...o8....+>....-*....1O...o8....+>....-*....1O...o8....+>....-*....1O...O8....*80W",
"W0888$bRRRRRRRRRRi8888888O...o8....+>....-*....1O...o8....+>....-*....1O...o8....+>....-*....1O...O8....*80W",
"W0888$bRRRRRRRRRBr8888888O...o8....+>....-*....1O...o8....+>....-*....1O...o8....+>.. .-*....1O...O8....*80W",
"W0888$bRRRRRRRRRmaaaaaa88O...o8....+>....-*....1O...o8....+>....-*....1O...o8....+>.. .-*....1O...O8....*80W",
"W088qdGRRRRRRRRRRRRRRRF88O...o8....+>....-*....1O...o8....+>....-*....1O...o8....+>....-*....1O...O8....*80W",
"W088&nRRRRRRRRRRRRRRYF888O...o8....+>....-*....1O...o8....+>....-*....1O...o8....+>....-*....1O...O8....*80W",
"W088&nRRRRRRRRRRRRRRC8988O...o8....+>....-*....1O...o8....+>....-*....1O...o0....+>....-*....1O...O8....*80W",
"W08sxcvvvvvLRRRRRRRBw8888O...o8....+>....-*....1O...o8....+>....-*....1O...o8....+>....-*....1O...O8....*80W",
"W08e$$$$$$$jKRRRRRRN88888O...o8....+> ...-*....1O...o8....+>....-*....1O...o8....+>....-*....1O...O8....*80W",
"W0888888888fGRRRRRZt88888O...o8....+>....-*....1O...o8....+>....-*....1O...o8....+>....-*....1O...O8....*80W",
"W0888888888fGRRRRZy888888O...o8....+>....-*....1O...o8....+>....-*....1O...o8....+>....-*....1O...O8....*80W",
"W088888888%VIRRRAy8888888O...o8....+>....-*....1O...o8....+>....-*....1O...o8....+>....-*....1O...O8....*80W",
"W088888888hJRRRPr88888888O...o8....+>....-*....1O...o8....+>....-*....1O...o8....+>....-*....1O...O8....*80W",
"W088888888hJRRP8888888888O...o8....+>....-*....1O...o8....+>....-*....1O...o8....+>....-*....1O...O8....*80W",
"W088888889hJRF88888888888O...o8....+>....-*....1O...o8....+>....-*....1O...o8....+>....-*....1O...O8....*80W",
"W08888888kHTRF89888888088O...o8....+>....-*....1O...o8....+>....-*....1O...o8....+>....-*....1O...O8....*80W",
"W08888888lIRFt88888888888O...o8....+>....-*....1O.  o8....+>....-*....1O...o8....+>....-*....1O...O8....*80W",
"W08888888lISu888888888888O...o8....+>....-*....1O...o8....+>....-*....1O...o8....+>....-*....1O...O8....*80W",
"W08888888lDp8888888888888O...o8....+>....-*....1O...o8....+>....-*....1O...o8....+>....-*....1O...O8....*80W",
"W87888888g$88888888888888@OOO+8OOOO=<OOOO:-OOOO3@OOO+8OOOO=<OOOO:-OOOO3@OOO+8OOOO=<OOOO:-OOOO3@OOO@8OOOO-74W",
"WW27888888888888888888888888888888888888888888888888888888888888888888888888888888888888888888888888888878WW",
"WWW888888888888888888888888888888888888888888888888888888888888888888888888888888888888888888888888888888WWW",
"WWWWWWWWWWWWWWWWWWWWWWWWWWWWWWWWWWWWWWWWWWWWWWWWWWWWWWWWWWWWWWWWWWWWWWWWWWWWWWWWWWWWWWWWWWWWWWWWWWWWWWWWWWWW",
"WWWWWWWWWWWWWWWWWWWWWWWWWWWWWWWWWWWWWWWWWWWWWWWWWWWWWWWWWWWWWWWWWWWWWWWWWWWWWWWWWWWWWWWWWWWWWWWWWWWWWWWWWWWW"
};
